<svg id="Capa_1" data-name="Capa 1" xmlns="http://www.w3.org/2000/svg" viewBox="0 0 231.36 222.73"><defs><style>.cls-1{opacity:0.8;}.cls-2{fill:#d0d6e1;}.cls-3{fill:#dfe3ea;}.cls-4{fill:#c1cad9;}.cls-5{fill:#b5c0d2;}.cls-6{fill:#a8b6cb;}.cls-7{fill:#9cadc4;}.cls-8{fill:#90a3be;}.cls-9{fill:#7d89aa;}.cls-10{fill:#5d6d8e;}</style></defs><title>LogoKg</title><g class="cls-1"><g class="cls-1"><path class="cls-2" d="M188.93,82.46c-.39,0-.82-.14-1.21-.14-.61-1.87-1.24-1.17-1.74-2.31l-.61-2.62a7.62,7.62,0,0,0,1.15-1.32c.45.1,0-1.13-.46-2a12,12,0,0,1-1-2.78,8.28,8.28,0,0,0-1.38-3c-.26-1.62.16-1.29.8-.32s1.35,2.65,1.91,3.6c-.32-.15-.18.76.19,1.38.48,1.06,1.19,2.8,1.52,2.32.23-.27.91.22.54-.91-.1-.44.31.28.79,1.67l.87,2.45c.31.92.57,1.94.87,2.94s.56,2,.77,3l.59,2.51c.27,1.43.44,2.24.42,1.79.29-2.51-1.25-7.16-2.74-11,.33-.46-.2-1.81-.78-3.13s-1.24-2.61-1-3.1c-.4-1.81-2.3-5.2-2.6-6.79A48.75,48.75,0,0,0,179,53.39c-1.75-1.69-.68-1.43-1.75-3.38-1-1.36-2.22-2.55-3.31-3.85L171.85,44c-.69-.73-1.42-1.43-2.16-2.11s-1.36-1.45-2.05-2.14l-2.13-2.09c-.36-.29-.73-.58-1.25-.93-1.35.07-3.31-1.66-4.77-3.5-1.66-1.17-3.42-2.18-5-3.21a35.91,35.91,0,0,0-3.83-2.22c-1.42-.65-2.87-1.34-4.2-2-1.84-.9-3.68-1.82-5.45-2.5l-2.22-.74-2.14-.6c-1.26-.12-2.52-.24-3.78-.26-2.29-.47-.64-.85-2.11-1.61-1.71-.28-3.43-.49-5.15-.71.34-.19-.58-.58-1.53-.6-2.37-.07-3-.72-3-1.21,1.28,0,2.56.12,3.84.21,1.58.29,3,.76,4.53,1.15,1.4.39,2.91,1,4.44,1.42,1.12.11,2.2.35,3.32.53s2.26.4,3.42.72l.76.25L141.08,23c1.67.47,3.31,1,4.95,1.62l.23-.65,1.17.46,1.15.51,2.29,1c1.52.7,3,1.5,4.49,2.25a76.39,76.39,0,0,1,14.21,11.53l2.2,2L173.85,44c.55,1,2.44,2.44,2.75,3.68a26.29,26.29,0,0,1,1.66,2.51c1.32,1.52,2.48,3.17,3.69,4.77.92,1.64,2.45,3.77,3.75,6,.33.56.68,1.11,1,1.66l.84,1.65a17.43,17.43,0,0,1,1.22,2.94c.31.7,1.35,2.22.82,2a139.11,139.11,0,0,1,5.67,19.68c-.83,1,.47,3.74.85,7.17-.1,1.39-.18,2.91-.39,4.28a6.53,6.53,0,0,1-.39,3.6c-.06,1.19-.11,2.37-.12,3.54a12.75,12.75,0,0,1-.39-3.52c-.17-2.09-.38-4.87-.81-7.65-.77-5.59-2.37-11.13-2.77-11.6C190.45,83.88,189.75,83.22,188.93,82.46Z"/><path class="cls-2" d="M127.37,9.84a16.75,16.75,0,0,0-1.79.47c-.93-.39-1.9-.78-2.89-1.16s-2-.66-3-1a6.93,6.93,0,0,1,3-.57,36.7,36.7,0,0,1,3.91.41A1.93,1.93,0,0,1,127.37,9.84Z"/><path class="cls-2" d="M111.35,8.79c-1.91.24-3.29.42-4.2.63s-1.37.46-1.42.72l-2.93.23c-1,.09-2,.25-2.91.36s-1.9.17-2.84.3l-2.84.38c-1.29.19-2.52.45-3.75.71s-2.48.48-3.72.84c-1,.2-2.23.45-3.25.7l-.3-.82c1.61-.69,3.05-1.38,4.69-2-.13-.43-.12-1-1.26-1,1.81-.5,3.64-.94,5.46-1.4s3.68-.78,5.54-1.07a4.75,4.75,0,0,0,2.3.26c1.1,0,2.43-.2,3.66-.32,4.12,0,4.41-.63,6-.59,1.46.33,2.9.63,4.33,1.05C113.06,8,112.2,8.38,111.35,8.79Z"/><path class="cls-3" d="M183.54,81a8.41,8.41,0,0,1-1.64-2.92,8.76,8.76,0,0,0-.54-1.67l-.41-2-.54-1.94c.48,0,.83,0,1.27.07-.33-.66-.63-1.3-.89-1.92L180,68.89c-.26-.58-.5-1.15-.72-1.72l-.74-1.65a33.58,33.58,0,0,0-1.6-3.28,24,24,0,0,0-2.16-3.37L173.44,57l-1.3-1.74c-.82-1.18-1.72-2.26-2.63-3.38a41.81,41.81,0,0,0-3.07-3.32c-.56-.57-1.2-1.08-1.85-1.64a25.1,25.1,0,0,0-2.12-1.66c.11-1.6-5.43-4.87-6.24-6.63-2.35-1.73-6.28-3.21-7.13-4.49a4.56,4.56,0,0,0-2.24-.75,5.23,5.23,0,0,1-2.38-.93c-.16-.59-.84-1.08-1.78-1.57a19.64,19.64,0,0,0-3.41-1.34c-2.5-.86-5.2-1.44-6.25-2.51-.46-.3.24-.2,1.5.19l2.24.7c.84.28,1.72.66,2.61,1,3.56,1.39,6.87,3.16,5.79,2.51-.51-.71-2.12-1-3.19-1.52-1.16-.24-.58.37-2.19-.36.83-.47.58-1-.27-1.63a19.91,19.91,0,0,0-3.82-2c-.75-.08-1.61-.16-2.48-.28a6.58,6.58,0,0,1-2.51-.73c-.12-.59-1.16-1.19-2.64-1.56a21.66,21.66,0,0,0-2.44-.49,21.92,21.92,0,0,0-2.65-.12,12.55,12.55,0,0,1,1.39,1.28,11.66,11.66,0,0,1-3.45-.59c-.72-.24-.74-.62.71-.85a14.05,14.05,0,0,0-7.25-.88l0,1.1-2.18-.06c-.71,0-1.43,0-2.19-.09s-1.49-.27-2.22-.39L105.58,22a45.82,45.82,0,0,1-10.5,2.15c-3.36.47-6.77.8-10.08,2.14a10.82,10.82,0,0,0-2.38.61l-2.76,1.14c-1.79.73-3.24,1.4-3.41.75.81-.78,2.58-1.35,3.1-2.06-5.08,1.06-10.18,2.56-14,6.55-2.67,2.38-2.41.4-4.76,2.47-1.69,1.89.16,1.67-3.48,4.06-2,.37-4.41,2.56-6.76,4.64-1.09,1.11-2.06,2.35-3,3.41.29.85-1.46,2.6-2.64,3.66a20.94,20.94,0,0,0-3.28,3.55c-1,1.28-1.82,2.1-2,1a78.91,78.91,0,0,0-5,8.52,9.78,9.78,0,0,1,1.76-.86c-1,1.43-1.8,3.6-2.9,4.48-.84,1-1.61,2-2.39,3.08-.5,3-3.13,5.77-3,9.24a42.33,42.33,0,0,1-.9,4.36,5.84,5.84,0,0,1-1.44,2.83c-.26.75-.55,1.5-.7,2.12,0,1.43.16,2.56.22,3.82,0,1.88-.71,2-.89,3.7-.08.62-.14,1.09-.16,1.56-.1,1.57-.24,3-.3,4.54l-.53,3.4c-.18,1.15-.25,2.31-.39,3.43-.26.34-.58.53-.84.87.55,5.56.77,10.21,1,13.8a5.93,5.93,0,0,1,1,2.59,27.77,27.77,0,0,0,.81,3.39c.28,4.54,2.13,9.79,4.4,14.59s5,9.17,6.6,12.58a21.09,21.09,0,0,0,4.77,6.52A33.27,33.27,0,0,1,43,167.24a4.08,4.08,0,0,1,.91,2.5,31.26,31.26,0,0,0,2.73,2.68c.83.69,1.56,1,1.78.61,4.34,3.26,7.83,6.67,11.6,9.71s7.71,5.72,12.56,6.94c4.82,3.18,10.53,4.74,16,6.31a20.34,20.34,0,0,1,3.44.26c.68.1,1.41.23,2.17.36l2.35.33c.8.11,1.61.25,2.42.33s1.61.13,2.39.17a17.71,17.71,0,0,0,4.21-.16c.88.06,1.83.11,2.47.2s1,.24.56.62a5.66,5.66,0,0,0,2.26.28c.23-.49,1-.78,2.2-1a18.62,18.62,0,0,1,4.63,0c2.89-1.29,3.08-.89,3.81-.31l3-.64,1.51-.31,1.5-.38c1-.44,2.44-.77,4.2-1.33.89-.26,1.86-.53,2.9-.8l3.3-1a112.66,112.66,0,0,0,15.37-5.87,93.41,93.41,0,0,0,14.47-8.5c2.08-1.44,3.84-2.94,5.39-4.18s2.72-2.4,3.54-3.27a19.7,19.7,0,0,0,3.41-4.41c.48-.81.93-1.61,1.32-2.38l1-2.16c-1.83.4-.47-2.58,1.92-4.89,1.77-2.89,2.13-1.26,3.18-2.46.17.82,1.47-.26,2.38-2.3.38-.87,1.37-2,1.26-2.73-1.24.63.08-1.87.35-3.11a17.51,17.51,0,0,0,2.11-2.14l2.27-2.56c1.41-1.55,2.65-2.46,3-.71-.62,1.18-1.18,2.37-1.91,3.49-.73,1.47-1.35,2.8-2.21,4.2l-.83,1.23a12.48,12.48,0,0,1-1.73,1c-.63,1.21-1.65,2.86-2.48,4.21s-1.4,2.46-.93,2.74c-.67,1.11-1.47,2.13-2.2,3.21,0,.41.22.72.26,1.14-.55.81-1.29,1.69-1.88,2.47-.56.6-1.08,1.19-1.63,1.74L181.6,168l-.28,1.66c-1.2,1.14-2.4,2.22-3.57,3.29s-2.41,2-3.63,3c.08.13-1.21,1.35-3.24,3.06-1.05.81-2.26,1.78-3.61,2.75s-2.8,2-4.34,2.9a141.63,141.63,0,0,1-13.28,7l-1.48.67c-2,.76-3.77,1.57-5.79,2.22a11.44,11.44,0,0,1-4.68,2.13c-1.86.59-3.74,1-4.74,1.72l-.81.19a91.32,91.32,0,0,1-12.54,2.05c-2.16.38-4.5.59-6.92.82a65,65,0,0,1-7.37.08,49.44,49.44,0,0,1-7.16-.83c-1.13-.24-2.23-.54-3.27-.84-.52-.15-1-.31-1.52-.48s-1-.39-1.42-.59a6.9,6.9,0,0,0-2.31-.29c.33.47-.06.56-.77.48a26.48,26.48,0,0,1-2.59-.66c.24-.31-.45-.63-1.34-.87A18.81,18.81,0,0,0,82.5,197c-1-.4-2-.73-3-1.14l-2.92-1.26c-1.56-.6-2.9-1.27-4.43-1.93-.88.38-1.86.12-3.38-.19-.72-.46-2.64-1.14-2-1.28a26.15,26.15,0,0,0-4-2.53A11.29,11.29,0,0,1,59.47,186a9.18,9.18,0,0,1-3.22-1.72c-1.21-.84-2.38-2-3.49-2.71a11.48,11.48,0,0,0-2.54-2.7c-.56-.48-1.16-.94-1.73-1.44s-1.09-1-1.56-1.49c-2.14-.6-4.18-2.74-6.06-5.22s-3.56-5.3-5.29-7.35A24.26,24.26,0,0,0,33.54,160c-.75-1.12-1.57-2.21-2.34-3.27-1.44-2.18-2.72-4.23-2.71-6a21.62,21.62,0,0,0-3.61-5.49c-.53-1.24-.9-2.56-1.33-3.84-.59-1.39-1.09-3-1.65-4.59-.16-.48-.34-1-.48-1.44a20.2,20.2,0,0,1-.53-5,6,6,0,0,0-1.1-3.83c-.15-1-.79-3.25-.35-3.18a36.67,36.67,0,0,0-.21-5.86c-.1-1.11-.12-2.24-.15-3.29a15.42,15.42,0,0,1,.13-2.89c0-.83-.27-2.8.15-2.49a25.4,25.4,0,0,0,.12-6c0-2,.06-3.75.87-4.21A25.41,25.41,0,0,1,20.58,93,50.78,50.78,0,0,1,22,86.87c1.13-4.14,2.72-8.31,3.8-12.68.19.4.79-.77,1.19-1.16.95-1.73.36-2.29,1.1-3.77.34-.74.65-1.5,1-2.24.23-1,.47-1.94.83-3l-.62-.29c.43-.9,1-1.9,1.51-2.77L32.3,59l1.59-1.86,1.26-2,1.41-2,1.11-1.56L38.89,50c.82-1.06,1.65-2.14,2.53-3.13l.69.53.43-.49,1.09-1.65c.38-.54.79-1,1.18-1.57l1.61-1.84L48,40.17c4.91-4.22,7.87-5.5,10-7.82L59.85,31c1.2-.6,2.46-1.07,3.66-1.65,3.94-2.28,8.46-5.3,12-5.89,1-.44,1.92-.78,2.88-1.11s1.91-.69,2.92-1c2-.76,3.91-1.57,5.94-2.16L88,19c1.35-.3,2.78-.49,4.18-.71s2.82-.4,4.19-.55c1.76-.27,3.7-.41,5.46-.6,5.67-.14,8.69-.33,10.8,0l4.24.09,4.23.3c0,.49.58,1.14,3,1.21,1,0,1.87.41,1.53.6,1.72.23,3.44.43,5.15.71,1.47.76-.18,1.13,2.11,1.61,1.27,0,2.52.14,3.78.26l2.14.6,2.22.74c1.77.69,3.61,1.6,5.45,2.5,1.33.7,2.77,1.39,4.2,2A35.91,35.91,0,0,1,154.5,30c1.57,1,3.33,2,5,3.21,1.46,1.84,3.42,3.57,4.77,3.5.52.35.88.64,1.25.93l2.13,2.09c.69.69,1.34,1.42,2.05,2.14s1.47,1.38,2.16,2.11L174,46.15c1.09,1.31,2.29,2.5,3.31,3.85,1.07,1.95,0,1.69,1.75,3.38a48.75,48.75,0,0,1,6.83,11.32c.3,1.6,2.2,5,2.6,6.79-.28.49.34,1.79,1,3.1s1.1,2.67.78,3.13c1.49,3.84,3,8.49,2.74,11,0,.45-.15-.36-.42-1.79l-.59-2.51c-.21-.95-.46-2-.77-3s-.56-2-.87-2.94l-.87-2.45c-.48-1.39-.89-2.11-.79-1.67.37,1.13-.31.64-.54.91-.33.48-1-1.26-1.52-2.32-.37-.62-.51-1.53-.19-1.38-.55-.94-1.3-2.61-1.91-3.6s-1.05-1.3-.8.32a8.28,8.28,0,0,1,1.38,3,12,12,0,0,0,1,2.78c.5.87.92,2.1.46,2a7.62,7.62,0,0,1-1.15,1.32L186,80c.08,1.48.05,3,.08,4.26C185.42,85.07,184.48,84.26,183.54,81Z"/><path class="cls-4" d="M140.67,21.56c-1.71-.42-3.63-.64-5.35-.91-.46-.14-.92-.24-1.39-.34-1.53-.46-3-1-4.44-1.42-1.56-.39-3-.85-4.53-1.15-1.28-.1-2.55-.2-3.84-.21l-4.23-.3-4.24-.09a3.72,3.72,0,0,0-.86-1.09c-.83-.39-2.6-.11-3.93-.34-2.28,0-4.58,0-7,.2-1,.1-2.12.13-3.31.31s-2.44.34-3.65.56C91.48,17.34,89.23,18,88,19l-.78.23c-.9-.12-1.81-.25-2.72-.35a17.94,17.94,0,0,0-4.93,2.23c-1.19.54-2.39,1.07-3.56,1.64-1.22.1-2.33.11-3.43.16-1.5.69-2.95,1.5-4.28,2.17a40.18,40.18,0,0,0-5.72,3.57A21.24,21.24,0,0,0,59.85,31L58,32.35c-1.29.75-2.26,1.37-3.11,1.81s-1.53.75-2.14,1a11.38,11.38,0,0,0-3.23,2.06l-.78-.78a13.55,13.55,0,0,1,2.38-2.62c1-.85,2.08-1.64,3.06-2.45a63.47,63.47,0,0,0,7.63-4.92,36.2,36.2,0,0,1,8.35-4.63,2.94,2.94,0,0,0,.86-.19l3-1.23,1.47-.61L77,19.27a5.17,5.17,0,0,0,2.88.28,17.88,17.88,0,0,0,3.6-1.73L83.11,17c1.08-.47,2.21-.82,3.33-1.24s2.28-.83,3.5-1.19l1.48-.35c.83-.19,1.64-.41,2.48-.54l.83-.15c1.42.13,2.65.21,4.21.4,1.44-.06,2.9-.18,4.37-.2h4.35c1.33,0,2.67.06,4,.11,3.87,1.11,8.57,1.59,14.25,2.2,1.52.49,3.25,1.08,5,1.57s3.37,1.08,4.76,1.49a11.55,11.55,0,0,0,3,1.1C139.79,20.54,140.74,21,140.67,21.56Z"/><path class="cls-2" d="M101.86,17.12c-1.76.18-3.7.32-5.46.6-1.37.15-2.79.3-4.19.55s-2.83.41-4.18.71c1.21-1,3.46-1.63,5.85-2.19,1.21-.22,2.46-.4,3.65-.56s2.33-.21,3.31-.31c2.46-.19,4.76-.15,7-.2,1.33.24,3.1,0,3.93.34a3.72,3.72,0,0,1,.86,1.09C110.55,16.78,107.53,17,101.86,17.12Z"/><path class="cls-2" d="M78.85,11l-1.71.59c-2.35.72-3.88,1.2-5,1.61s-1.74.73-2.4,1l-.32-.61,2.7-1.49c.86-.42,1.66-.79,2.41-1.12s1.43-.6,2.06-.81a10.61,10.61,0,0,1,1.73-.39Z"/><path class="cls-2" d="M73.51,15.67l-3.85,1.76-1.78.43-3,1.55c-2.59.85-5.06,1.66-7.44,2.65a7.47,7.47,0,0,1,.23-.91c.58-.43,1.16-.86,1.75-1.28l1.83-1.17c2.17-1,4.44-1.77,6.65-2.6.75-.49,1.4-.81,2.17-1.27.53-.14,1-.33,1.74-.54A2.27,2.27,0,0,1,73.51,15.67Z"/><path class="cls-2" d="M58,32.35c-2.12,2.31-5.09,3.6-10,7.82l-1.57,1.71-1.61,1.84c-.4.53-.8,1-1.18,1.57l-1.09,1.65-.43.49-.69-.53c-.88,1-1.71,2.07-2.53,3.13l-1.22,1.57-1.11,1.56-1.41,2-1.26,2L32.3,59l-1.5,1.94c0-1-.07-1.92-.18-2.74.62-1.2,1.28-2.37,2-3.55A91.7,91.7,0,0,1,46.26,38.54c.77-.66,1.66-1.44,2.46-2.07l.78.78a11.38,11.38,0,0,1,3.23-2.06c.61-.27,1.3-.57,2.14-1S56.7,33.11,58,32.35Z"/><path class="cls-2" d="M29.92,64c-.36,1.11-.59,2.08-.83,3-.37.74-.68,1.49-1,2.24-.75,1.48-.15,2-1.1,3.77-.39.38-1,1.56-1.19,1.16-1.08,4.38-2.67,8.54-3.8,12.68A50.78,50.78,0,0,0,20.58,93a25.41,25.41,0,0,0-.22,5.78c-.81.46-.9,2.2-.87,4.21a25.4,25.4,0,0,1-.12,6c-.42-.3-.13,1.66-.15,2.49a15.42,15.42,0,0,0-.13,2.89c0,1.06,0,2.19.15,3.29a36.67,36.67,0,0,1,.21,5.86c-.43-.08.2,2.18.35,3.18a6,6,0,0,1,1.1,3.83,20.2,20.2,0,0,0,.53,5c.13.49.32,1,.48,1.44.56,1.58,1.05,3.2,1.65,4.59.43,1.28.8,2.6,1.33,3.84a21.62,21.62,0,0,1,3.61,5.49c0,1.75,1.27,3.8,2.71,6,.77,1.06,1.59,2.16,2.34,3.27a24.26,24.26,0,0,1,2.05,3.32c1.73,2,3.4,4.87,5.29,7.35s3.91,4.62,6.06,5.22c.46.49,1,1,1.56,1.49s1.17,1,1.73,1.44a11.48,11.48,0,0,1,2.54,2.7c1.11.75,2.28,1.87,3.49,2.71A9.18,9.18,0,0,0,59.47,186a11.29,11.29,0,0,0,3.33,2.64,26.15,26.15,0,0,1,4,2.53c-.63.15,1.29.82,2,1.28,1.52.31,2.51.57,3.38.19,1.53.66,2.87,1.34,4.43,1.93l2.92,1.26c1,.41,2,.74,3,1.14a18.81,18.81,0,0,1,2.45.53c.88.24,1.58.55,1.34.87a26.48,26.48,0,0,0,2.59.66c.71.08,1.1,0,.77-.48a6.9,6.9,0,0,1,2.31.29q.69.31,1.42.59c.49.17,1,.33,1.52.48,1,.3,2.14.6,3.27.84a49.44,49.44,0,0,0,7.16.83,65,65,0,0,0,7.37-.08c2.41-.22,4.75-.43,6.92-.82a91.32,91.32,0,0,0,12.54-2.05l.81-.19c1-.72,2.88-1.13,4.74-1.72a11.44,11.44,0,0,0,4.68-2.13c2-.64,3.81-1.45,5.79-2.22l1.48-.67c.53-.39,7-3.15,12.85-6.91a86.1,86.1,0,0,0,7.91-5.58,38.94,38.94,0,0,0,3.71-3.26,17.42,17.42,0,0,0,2.54-2.29,14.88,14.88,0,0,0,1.57-2A14.15,14.15,0,0,1,181.6,168l-.28,1.66c-1.47,2-2.79,3.9-4.41,5.78l.33.32-1.13,1.69c-.39.55-.8,1.1-1.21,1.64a88.83,88.83,0,0,1-12,8.41A95.1,95.1,0,0,1,154.3,192c-2.45,1.14-4.21,1.81-4.42,2-1.21.57-2.47,1-3.7,1.52s-2.5.93-3.77,1.37c.44.64-.58.95-2,1.28a14.76,14.76,0,0,0-4.66,1.41l.07.22L135,200c-1,.1-2.21.24-3.23.29-.76.4-1.54.75-2.15,1.11l-2.62.48-2.64.35c-.88.11-1.76.25-2.64.32l-2.65.21a7.46,7.46,0,0,1-1.72.58,19.22,19.22,0,0,1-2.09.23c-1.46.09-3,.12-4.27.08l-1.53.2a30.89,30.89,0,0,1-3.4-.6l-3.23-.1c-1.06-.06-2.12-.18-3.22-.28.05.44-.89.35-2,.19a9.09,9.09,0,0,0-3-.31c-1-.17-2.2-.39-3.2-.63l-3.24-.74-3.08-.86-1.6-.67-1.57-.74.18-.67c-3.31-1.36-3.84-.77-6.21-1.78l-.08.22c-1-.22-2.15-.6-3.13-.89-1-.63-2-1.14-2.8-1.74l-3-1.51c-1-.49-1.94-1.08-2.91-1.62-2.22-1.65-3.35-1.34-5.14-2.39-1.32-.81-2.27-1.57-3.4-2.34l-.7-.5c-2.14-1.76-4.23-3.56-6.2-5.49-1.46-1.2-2.91-2.66-4.29-3.94-.38-.35-.73-.72-1.09-1.09-.94-1-1.95-2-2.88-3l-2.67-3.05a14.72,14.72,0,0,1-2.28-2.57c-.74-1.19-1.23-2.33-2-3.72l-1-1.49-.94-1.55c-.61-1.05-1.3-2.09-1.88-3.23a4.19,4.19,0,0,1-1.35-.13c-.58-1.06-1.19-2.11-1.72-3.22l-1.62-3.41-1.72-4.72-1.19-3-.61-1.54-.54-1.58c-.93-2.58-1.68-5.22-2.4-7.88l.44-.13-.72-4.49-.5-4.5-.11-.84c-.26-2-.59-4.2-.72-6.41l-.08-2.46,0-2.46c0-1.36,0-2.72.17-4.07s.18-2.71.37-4.05c.13-1.51.19-3.19.39-4.88.3-2,.62-4.18,1.08-6.32.21-.9.39-1.82.63-2.73l.74-2.83c.33-1.39.8-2.79,1.22-4.2s.92-2.79,1.42-4.13l.64-1.91L24.15,73c.66-1,1.19-1.89,1.86-2.89l1.56-3.16,1.73-3.21Z"/><path class="cls-5" d="M18.4,131.25c.72,2.65,1.47,5.3,2.4,7.88l.54,1.58.61,1.54,1.19,3,1.72,4.72,1.62,3.41c.53,1.11,1.14,2.16,1.72,3.22l.49,1.75,2.09,3.62c.72,1.2,1.5,2.35,2.25,3.53a13.51,13.51,0,0,0,2.3,1.22c.46.51.85.85,1.2,1.22l1.07,1.34.22,1.92c.89,1.07,1.7,2.21,2.66,3.23l2.67.93c.36.37.71.75,1.09,1.09A15.34,15.34,0,0,0,48,181.06l.52.75c1,.71,2,1.4,3,2s2.07,1.36,3.19,2l.7.5c1.14.77,2.09,1.53,3.4,2.34,1.2,1,2.51,2.2,3.78,3.15,2.69,1.58,5.31,2.94,8.13,4.26,3.87,2,4.61,1.5,6.37,2.19l1.45.56c1,.43,2.1.8,3.15,1.19l1.58.58,1.61.52c1.49.46,3.13,1,4.64,1.45a13.65,13.65,0,0,0,1.84-.52c1,.25,2.18.47,3.2.63a22.54,22.54,0,0,0,6.3,1.24,6.8,6.8,0,0,1,3.53.95L106,205c1.21-.35,2.24-.8,3.42-1.19,1.55.45,3.28,1,4.87,1.33,1.21,0,2.25,0,3.46-.12l4.79-.62,1.71-.22a19.05,19.05,0,0,1,2.81-1.18,25.26,25.26,0,0,1,2.73-.79l-.06-.22c1.79-.57,3.51-1.33,5.24-2l.82-.19c1.88-.22,1.2.43,2.63.41a10.53,10.53,0,0,1-2.1,1.11,17.86,17.86,0,0,1-2.19.63,27.92,27.92,0,0,1-3.57.56l-1.31,1.17a17.67,17.67,0,0,0-1.34,2c-1.31.58-2.65,1.1-4,1.65l-.88.11c-1.2.1-2.4.14-3.6.21l-1.8.09h-1.8l-3.6,0-3.59-.2c-1.59,0-3.14-.17-4.69-.27s-3.09-.28-4.67-.48c-2.29-.28-4.54-.84-6.63-1.23l0,.18c-.7-.12-1.21-.26-1.73-.37-1.73-.41-3.3-.7-5-1.21a91.05,91.05,0,0,1-14.46-4.87,83.63,83.63,0,0,1-7.57-4l-3.6-2.3-3.48-2.46c-1-.81-1.74-1.55-2.51-2.31-1.59-.8-3.08-1.73-4.48-2.52-.89-.9-1.61-1.7-2.32-2.51a102.1,102.1,0,0,1-9.31-8.66l.32-.33L36,170.75c-.93-1.29-1.61-2.32-2.45-3.45-.61-.39-1.06-.71-1.55-1-.8-1.16-1.61-2.32-2.37-3.51l-2.19-3.63-2.13-3.65c-.53-1-.93-2.05-1.39-3.06s-.91-2-1.3-3.09a44,44,0,0,0-2.26-4.56l-1.46-3.1-1.31-3.18c-.08-1.67-1.12-3.52-1.68-5.58-.4-2.56-.65-4.13-.9-5.2s-.38-1.67-.54-2.27c-.07-1.25-.17-2.31-.2-3.56.49-1.53,1-2.85,1.4-4.49A113.22,113.22,0,0,0,18.4,131.25Z"/><path class="cls-2" d="M33.55,167.3c.84,1.13,1.52,2.16,2.45,3.45l2.48,3.47-.32.33a20,20,0,0,1-5.66-5.39c-.63-1.34.4-.83-.49-2.83C32.49,166.59,32.93,166.91,33.55,167.3Z"/><path class="cls-6" d="M117.41,210.11c.89-.18,1.6-.39,2.48-.64,1-.64,2.18-1.31,3.14-2l.88-.11c1.35-.55,2.68-1.07,4-1.65a17.67,17.67,0,0,1,1.34-2l1.31-1.17a27.92,27.92,0,0,0,3.57-.56,17.86,17.86,0,0,0,2.19-.63,10.53,10.53,0,0,0,2.1-1.11c1-.11,2-.24,2.81-.41a18.56,18.56,0,0,0,2-.57c1-.36,1.34-.67.75-.78a4.65,4.65,0,0,1,1.36-.83c.54-.26,1.16-.52,1.79-.77a8.89,8.89,0,0,0,3.28-1.86c.24-.12.87-.4,1.78-.8l1.57-.67,1.88-.91,2.16-1,2.32-1.24c1.62-.83,3.25-1.84,4.9-2.83a85.1,85.1,0,0,0,13.19-9.89c.27-.45.54-.9.77-1.37s.53-.89.91-1.45l2.84-3.36,2.78-3.55.93-1.19,1.27.91c1.11-.46,2.32-1.09,3.44-1.6a11.25,11.25,0,0,0,.61-1.66c.95-1,1.89-2.08,2.73-3.2l1.3-2.05c.75-1,1.26-1.88,2-2.89.36-2,.62-3.92.88-5.85.28-.25.49-.35.77-.6.54-.89,1.09-2,1.56-2.88a8.68,8.68,0,0,1,1.48,1.5c.78-1,1.53-1.86,2.21-2.92-.31,1.11-.74,2.17-1.13,3.25s-.78,2.17-1.26,3.21c.5-.17.92-.19,1.42-.37.73-.48,1.55-3.44,2-2.89.15,1,.32,1.87.41,2.89.79-4,3.38-8.29,4.22-7.87-.38,1.23-.7,2.3-1.06,3.35a10.1,10.1,0,0,1-1.07,4l-.87,2.08a9.84,9.84,0,0,0-.62,1.67c.55,0-1.94,3.63-.2,3.82-1.06,1.38-2.17,2.93-3.35,4.44l-2.42,3.81c-1.29,1.86-2.14,3.15-2.78,4.2s-1.13,1.79-1.61,2.61c-1.29,1.64-2.74,3.14-4.16,4.66-.43.5-1.21,1.3-2.26,2.32s-2.3,2.3-3.83,3.63a105.15,105.15,0,0,1-10.91,8.61,110.74,110.74,0,0,1-11.87,7.07c-1.78.91-3.39,1.63-4.67,2.25s-2.31,1-2.88,1.24l-.62-1.18c-1.22,0-2.56.24-3.78.2l-1.68.67a22.35,22.35,0,0,1-2.1,1.1c-.7.3-1.38.57-2.05.82-1.34.52-2.62,1-3.89,1.53l-1,2.15c-2.39.5-4.83.74-7.22,1.09l-.91.17c-1.64.28-3.45.67-5.1.88-1.69,0-3.38,0-5,0l-4.85-.27Z"/><path class="cls-2" d="M120.3,212.56c2.38-.47,4.73-1.06,7-1.7,1.65-.21,3.46-.6,5.1-.88-.37.77-.77,1.49-1.16,2.26l-2.67.48-2.73.36-2.73.35-2.71.22Z"/><path class="cls-2" d="M186.55,161c.73-1.07,1.53-2.09,2.2-3.21-.47-.28.08-1.39.93-2.74s1.85-3,2.48-4.21a12.48,12.48,0,0,0,1.73-1l.83-1.23c.85-1.4,1.48-2.74,2.21-4.2.73-1.12,1.29-2.31,1.91-3.49l1.09-1.29,1-1.33c.58-3.71,1.16-5.84,1.89-6.89s1.35-1.07,1.7-.48l.63.12c-.2,1.34-.45,2.68-.63,4-.14.49-.27,1-.44,1.47-.76.68-1.56,1.34-2.31,2l-.27.8c-.33,1-.76,2-1.12,3s-.74,2-1.2,2.95c-.68.28-1.35.56-2.13,1-.28.6-.58,1.37-1,2.1-1.3,1.77-2.12,3.92-3.1,5.46l-.41.71-.59,1.25-.67,1.25L190,159.48c-1.06.91-2.14,1.77-3.19,2.65C186.77,161.71,186.6,161.4,186.55,161Z"/><path class="cls-5" d="M206.45,158.59c-1.74-.2.75-3.79.2-3.82a9.84,9.84,0,0,1,.62-1.67l.87-2.08a10.1,10.1,0,0,0,1.07-4c.36-1,.68-2.12,1.06-3.35-.84-.42-3.43,3.87-4.22,7.87-.09-1-.26-1.87-.41-2.89-.62.93-1.34,2-2,2.89-.3-.32-.84,0-1.42.37.48-1,.85-2.14,1.26-3.21s.82-2.14,1.13-3.25c-.68,1.07-1.43,1.91-2.21,2.92a8.68,8.68,0,0,0-1.48-1.5c-.47.92-1,2-1.56,2.88-.28.25-.49.35-.77.6l-.21-.09-.21-.09c-.72.61-1.36,1.06-2.07,1.66-.16-1-.36-1.82-.54-2.79.19-.28.35-.39.54-.67.38-.73.69-1.5,1-2.1.78-.4,1.46-.68,2.13-1,.47-1,.82-2,1.2-2.95s.79-1.94,1.12-3a14.21,14.21,0,0,1,.84,2.73c.65-1.58,1.09-3.05,1.64-4.67a4.27,4.27,0,0,0,1.34-.53,11.07,11.07,0,0,0,.66-1.44c0-.53,0-1.07.06-1.75a14.63,14.63,0,0,1-1.53,1.4c.18-1.35.44-2.69.63-4,.87-1.56,1.41-1.47,1.91-1.38l.18,0c.44-.71.88-1.47,1.33-2.26s.81-1.62,1.21-2.46l0,2.63-.12,2.5-.4,2.33-.51,2.27-.53,2.27c-.19.76-.42,1.51-.64,2.28.15.41.4.67.56,1.08l-.37,2.13-.49,2.11a15.85,15.85,0,0,0,2.43-4.75l1.31-1.92,1.26-2,.5-1.77c.58-1.38,1-2.61,1.65-4.2a7.79,7.79,0,0,1,1.57-3,1.16,1.16,0,0,1,1.29-.22c-.21,2.16-.4,3.62-.53,4.82a18.33,18.33,0,0,1-.57,3.25c-.43.88-.91,1.75-1.39,2.61-.39,1.66-.91,3.23-1.4,4.81s-1,3.14-1.62,4.75c-.81,1.93-1.74,3.8-2.67,5.67l.6.24c-.68,1.78-1.43,3.31-2.24,5C207.08,158.25,206.84,158.35,206.45,158.59Z"/><path class="cls-2" d="M210.62,133.76c.12-.71.22-1.6.38-2.49a17.07,17.07,0,0,1-.46-1.89c.38-1.38.69-2.59,1-4.17a4,4,0,0,0,.76,1c1.29-3.11,1.58-.54,2.11-.66,0,1.66.41,2.66,0,4.46-.61,1.58-1.07,2.82-1.65,4.2Z"/><path class="cls-2" d="M218.8,119.16c.05-1.42,0-2.8,0-4.09s0-2.48-.06-3.52c0-2.09,0-3.59.47-4.09L220,111c0,.71,0,1.45-.06,2.19s-.12,1.47-.2,2.18A12.14,12.14,0,0,1,218.8,119.16Z"/><path class="cls-3" d="M153,19.73c-1.56-.69-3-1.36-4.56-1.95-1.17-.29-2.56-.67-3.65-1s-1.81-.7-1.59-1.18l-2-.54-1.94-.44c.11-.45-2.34-1.32-2.25-1.77,1.11-.28,2.84.16,4.56.64s3.38,1.13,4.52,1c2.21,1.14,4.56,2.34,6.66,3.63.72.53.67.65.62.78Z"/><path class="cls-3" d="M125.58,10.3c-1.9-.17-3.54-.32-5.14-.37s-3.15-.21-4.88-.24c-.51.45-1,.89-1.51,1.3a27.62,27.62,0,0,1-4.95-.13,16.81,16.81,0,0,1-1.72-.36l-1.66-.37c.05-.26.51-.48,1.42-.72s2.29-.39,4.2-.63c.85-.41,1.71-.75,2.57-1.1l2.47.06c1.06.09,2.29.25,3.35.41,1,.33,2,.64,3,1S124.65,9.91,125.58,10.3Z"/><path class="cls-3" d="M93.9,13.7c-.83.13-1.65.35-2.48.54l-1.48.35c-1.22.36-2.37.78-3.5,1.19s-2.25.76-3.33,1.24a6.17,6.17,0,0,1-.88.06l-2.66,1L77,19.27l-1.53.54L74,20.42l-3,1.23-.75.39-.11-.2a15.29,15.29,0,0,1,.58-2.48c-2.43.22-3.12-.55-1.05-1.93l3.85-1.76c2.47-.55,5-1.87,7.18-2.48.89-.15,1.6-.27,2.5-.36l.3.82c1-.24,2.22-.5,3.25-.7,1.25-.36,2.49-.58,3.72-.84s2.46-.52,3.75-.71A10.44,10.44,0,0,0,93.9,13.7Z"/><path class="cls-3" d="M77.32,12c-1.84.75-3.7,1.42-5.5,2.25-.7.22-1.21.4-1.74.54-.78.46-1.42.78-2.17,1.27-2.21.83-4.48,1.61-6.65,2.6.45-.63.78-1.14,1.11-1.65,1.11-.64,2.33-1.17,3.52-1.76l1.79-.86,1.79-.77.32.61c.66-.3,1.33-.61,2.4-1s2.61-.89,5-1.61Z"/><path class="cls-3" d="M64.89,19.41a46,46,0,0,1-4.19,2.74,25,25,0,0,1-4,1.95,13.13,13.13,0,0,1,.71-2C59.83,21.06,62.29,20.25,64.89,19.41Z"/><path class="cls-3" d="M30.63,58.19c-.9,1.63-1.89,3.2-2.71,4.87l-1.18,1.32c-.18-.45-.44-.75-.62-1.2,1-2.38,2.11-4.56,3-6.27s1.77-2.79,2.36-2.94l1.15.67C31.91,55.81,31.25,57,30.63,58.19Z"/><path class="cls-4" d="M30.81,60.93c-.49.86-1.08,1.87-1.51,2.77L27.57,66.9,26,70.06c-.67,1-1.2,1.88-1.86,2.89l-.73,1.88-.64,1.91c-.5,1.34-1,2.72-1.42,4.13s-.89,2.81-1.22,4.2L19.4,87.9c-.24.92-.42,1.83-.63,2.73C18.3,92.78,18,95,17.69,97c-.2,1.68-.27,3.36-.39,4.88-.19,1.34-.25,2.7-.37,4.05s-.15,2.71-.17,4.07l0,2.46.08,2.46c.13,2.2.46,4.39.72,6.41l.11.84.5,4.5.72,4.49-.44.13a113.22,113.22,0,0,1-2.73-13.8c-.35,3.37-1,3.35-1.4,4.49a100.27,100.27,0,0,1-1-11.7c.17-1,.12-2.21.23-3.41a10.9,10.9,0,0,1,.64-3.27c0-1.13.2-2.26.32-3.38s.21-2.25.37-3.38l.84-4,1.06-4.11c.18-1,.5-2.06.76-3.13s.52-2.16.87-3.23l1.54-3c.5-1,1.09-1.92,1.62-2.91.34-1.86.94-3.81,1.4-5.64a4.32,4.32,0,0,0,.7-.66l1.55-2.87.76-1.42.83-1.41,1.18-1.32c.82-1.67,1.81-3.24,2.71-4.87C30.74,59,30.77,60,30.81,60.93Z"/><path class="cls-3" d="M22.9,70.74c-.46,1.83-1.06,3.78-1.4,5.64-.54,1-1.12,1.94-1.62,2.91l-1.54,3c1.58-5.63,2.57-10,4.35-11.62Z"/><path class="cls-3" d="M13.47,77.74a4.67,4.67,0,0,1,.83,1.12l-.8,2.88c-.24,1-.45,1.94-.67,2.91s-.27,1.74-.36,2.59l-.25,2.6c-.13.62-.25,1.33-.36,2.05s-.16,1.46-.26,2.13c-.19,1.34-.46,2.4-1,2.56-.34-.2-.67-.58-1-.78l.38-4,.57-4c-.12-1.69,0-3.53,0-5.22.25-1.18.59-2.34.91-3.51s.62-2.33,1-3.48a11.27,11.27,0,0,1,2.39-3C14.36,74.39,13.87,76,13.47,77.74Z"/><path class="cls-3" d="M9.48,123.87c.92,3.76,1.43,4.38,1.82,6l.8,3.39c2.2,5.64,3.61,8.76,3.21,10.14a7,7,0,0,0-1.71-.27c-.53-1-1.09-2.17-1.57-3.18-.36-1.86-.51-3.78-.73-5.47-.68-.94-1.28-2.12-1.91-3.1-.52-2.38-1.28-5.28-1-7.25Z"/><path class="cls-3" d="M25.31,155.52c-.81-.54-1.46-1.17-2.11-1.61a27.2,27.2,0,0,1-2-4.73,14.8,14.8,0,0,1-.84-4.37,44,44,0,0,1,2.26,4.56c.39,1.08.86,2.08,1.3,3.09S24.79,154.51,25.31,155.52Z"/><path class="cls-3" d="M54.26,188.21c.77.76,1.55,1.5,2.51,2.31a21.91,21.91,0,0,1-4.32-2.13,8.64,8.64,0,0,1-2.67-2.69C51.18,186.48,52.68,187.41,54.26,188.21Z"/><path class="cls-3" d="M63.86,195.28a83.63,83.63,0,0,0,7.57,4c-1.53,0-2.19.19-3.41-.6A7.42,7.42,0,0,1,63.86,195.28Z"/><path class="cls-3" d="M92.65,205.54c2.09.4,4.34,1,6.63,1.23-.38.37-.58.67-1,1-1.75-.5-5.51-.78-5.69-2Z"/><path class="cls-3" d="M123,207.45c-1,.71-2.14,1.38-3.14,2-.88.25-1.59.46-2.48.64-4.78-.47-3.74-1.46-8.75-1.49l0-1.1,3.59.2,3.6,0h1.8l1.8-.09C120.63,207.59,121.83,207.55,123,207.45Z"/><path class="cls-3" d="M120.3,212.56l.15,1.09c-1,.09-2.06.24-3.09.31l-3.1.18c.51-.56-1.79-1.55,1.53-1.78.75,0,1.5.1,2.25.13Z"/><path class="cls-4" d="M175.8,34.11l-1.6-1.29c-.54-.42-1.1-.81-1.65-1.22-1.11-.8-2.19-1.65-3.33-2.4-.11-.61-1.32-1.51-2.72-2.44a24.54,24.54,0,0,1-3.83-2.66,34,34,0,0,0-4.73-2.92c-1.75-.89-3.45-1.73-4.64-2.25a8.24,8.24,0,0,1-.62-.78c-2.1-1.29-4.45-2.5-6.66-3.63,2.37.61,5,1.21,7.29,2l.08-.21c1,.34,1.91.64,2.78,1s1.66.7,2.35,1a13.8,13.8,0,0,1,1.71.93,2,2,0,0,1,.77.83,59.19,59.19,0,0,1,15.74,12.83c1.74,1.44,3.37,3,5,4.59.64,1.12,2.16,2.85,3.44,4.52s2.27,3.28,2,4a5.07,5.07,0,0,1-2-1.41c-.73-.73-1.49-1.74-2.42-2.83s-1.88-2.41-3.06-3.68l-1.82-2C177.23,35.39,176.51,34.77,175.8,34.11Z"/><path class="cls-4" d="M146,24.67c-1.64-.59-3.28-1.15-4.95-1.62a6.51,6.51,0,0,1-.41-1.49l.76.25c1.64.66,3.24,1.44,4.82,2.21Z"/><path class="cls-4" d="M86.62,9.75c1.14.06,1.13.61,1.26,1-1.64.66-3.08,1.35-4.69,2-.9.09-1.61.21-2.5.36-2.18.7-4.29,1.57-6.42,2.42-.21,0-.55.07-.76.06a2.27,2.27,0,0,0-1.69-1.4c1.8-.83,3.66-1.5,5.5-2.25l-.18-.42L78.85,11l-.49-1.19,3.37-.93,3.4-.77.28.82A5,5,0,0,1,86.62,9.75Z"/><path class="cls-4" d="M23.14,145.22l1.72,4.72Z"/><path class="cls-4" d="M29.54,156.7c.59,1.14,1.27,2.18,1.88,3.23l.94,1.55,1,1.49c.72,1.39,1.22,2.53,2,3.72a13.51,13.51,0,0,1-2.3-1.22c-.75-1.18-1.53-2.34-2.25-3.53l-2.09-3.62-.49-1.75A4.19,4.19,0,0,0,29.54,156.7Z"/><path class="cls-4" d="M43.16,175.34l-2.67-.93c-1-1-1.76-2.16-2.66-3.23l-.22-1.92,2.67,3.05C41.21,173.34,42.22,174.34,43.16,175.34Z"/><path class="cls-4" d="M48.54,180.38c2,1.93,4.07,3.73,6.2,5.49-1.12-.64-2.15-1.36-3.19-2s-2-1.34-3-2c-1.41-1.84-5-4.3-4.27-5.38C45.63,177.72,47.08,179.18,48.54,180.38Z"/><path class="cls-4" d="M58.85,188.7c1.79,1.05,2.92.74,5.14,2.39,1,.54,1.92,1.13,2.91,1.62l3,1.51c.85.6,1.76,1.11,2.8,1.74,1,.29,2.12.67,3.13.89l.08-.22c2.37,1,2.9.41,6.21,1.78l-.18.67,1.57.74,1.6.67,3.08.86,3.24.74a13.65,13.65,0,0,1-1.84.52c-1.51-.4-3.15-1-4.64-1.45l-1.61-.52-1.58-.58c-1.05-.39-2.11-.76-3.15-1.19l-1.45-.56c-1.76-.69-2.5-.18-6.37-2.19-2.82-1.33-5.44-2.68-8.13-4.26C61.36,190.9,60.06,189.71,58.85,188.7Z"/><path class="cls-4" d="M106,203.23a30.89,30.89,0,0,0,3.4.6c-1.18.39-2.21.83-3.42,1.19l-1.55-.11a6.8,6.8,0,0,0-3.53-.95,22.54,22.54,0,0,1-6.3-1.24,9.09,9.09,0,0,1,3,.31c1.1.16,2,.25,2-.19,1.1.11,2.16.22,3.22.28Z"/><path class="cls-4" d="M174.89,179.09c.41-.54.82-1.08,1.21-1.64l1.13-1.69,2.62-1c-.37.57-.65,1-.91,1.45-1,.8-1.71,1.29-2.31,1.7S175.5,178.62,174.89,179.09Z"/><path class="cls-4" d="M181.6,168l1.7-1.67c.55-.55,1.07-1.14,1.63-1.74-.09.93-.15,1.92-.16,2.73-1.27.92-2.31,1.57-3.45,2.33Z"/><path class="cls-5" d="M196.28,173.64c.48-.82,1-1.58,1.61-2.61s1.49-2.34,2.78-4.2L203.1,163c1.18-1.51,2.29-3.06,3.35-4.44-.85,1.48-1.76,3.14-2.74,4.76l.77.41c-1,1.43-2,3-3.09,4.38C199.73,170,198.06,171.89,196.28,173.64Z"/><path class="cls-4" d="M203.71,163.35c1-1.62,1.89-3.28,2.74-4.76.39-.24.63-.33,1-.57-.89,1.89-2,3.91-3,5.75Z"/><path class="cls-4" d="M195.56,149c.19-.28.35-.39.54-.67.06,1.1,0,2.34,0,3.45a8.67,8.67,0,0,1-1,1.38l-2.09.62c.44-.79.91-1.57,1.33-2.37Z"/><path class="cls-4" d="M209.11,152.73c.93-1.87,1.86-3.74,2.67-5.67-.59,2-1.35,3.94-2.08,5.91Z"/><path class="cls-4" d="M207.28,144.61l.49-2.11.37-2.13c-.15-.42-.4-.67-.56-1.08.21-.77.45-1.52.64-2.28l.53-2.27.51-2.27.4-2.33.12-2.5,0-2.63c.75-1.66,1.91-2.46,1.73.21-.32,1.58-.62,2.79-1,4.17a17.07,17.07,0,0,0,.46,1.89c-.15.89-.26,1.78-.38,2.49l2.16.45-.5,1.77-1.26,2-1.31,1.92A15.85,15.85,0,0,1,207.28,144.61Z"/><path class="cls-4" d="M201.53,139.35l.27-.8c.75-.66,1.55-1.31,2.31-2,.17-.48.3-1,.44-1.47a14.63,14.63,0,0,0,1.53-1.4c-.05.69-.06,1.22-.06,1.75a11.07,11.07,0,0,1-.66,1.44,4.27,4.27,0,0,1-1.34.53c-.55,1.62-1,3.09-1.64,4.67A14.21,14.21,0,0,0,201.53,139.35Z"/><path class="cls-4" d="M217.29,126.83c1.76-3,2.88-4.32,3.29-2.34l-.8,4.59a13.48,13.48,0,0,1-3.58,5.82,18.33,18.33,0,0,0,.57-3.25C216.9,130.45,217.08,129,217.29,126.83Z"/><path class="cls-5" d="M153.3,16.52c-2.34-.8-4.92-1.4-7.29-2-2.39-1.19-.34-1.32-1.93-2.24,4.3,1.1,9.33,2.48,9.3,4Z"/><path class="cls-4" d="M146,14.51c-1.13.13-2.82-.45-4.52-1s-3.45-.92-4.56-.64c-.77-.56-1.38-1.07-2.17-1.63-2.55-.63-5-1-7.38-1.41A1.93,1.93,0,0,0,126.65,8l.07-.87q5,.91,10,2.31l-1.8,1a21.31,21.31,0,0,0,4.55,1,12.25,12.25,0,0,1,2.94.36l1.69.56C145.66,13.19,143.62,13.32,146,14.51Z"/><path class="cls-5" d="M142.39,11.71a12.25,12.25,0,0,0-2.94-.36,21.31,21.31,0,0,1-4.55-1l1.8-1C138.57,10.11,140.58,11,142.39,11.71Z"/><path class="cls-5" d="M126.65,8a36.7,36.7,0,0,0-3.91-.41,6.93,6.93,0,0,0-3,.57c-1.06-.16-2.28-.32-3.35-.41l-2.47-.06c-1.42-.43-2.87-.73-4.33-1.05-1.61,0-1.9.56-6,.59-1.24.12-2.56.28-3.66.32a4.75,4.75,0,0,1-2.3-.26c-1.86.29-3.69.71-5.54,1.07s-3.65.9-5.46,1.4A5,5,0,0,0,85.41,9l-.28-.82a105.38,105.38,0,0,1,17.3-2.56l4.81-.17,4.8.07c2,.11,4.15.19,6.12.37l4.3.52c1.43.22,2.85.5,4.27.76Z"/><path class="cls-5" d="M83.43,17.82a17.88,17.88,0,0,1-3.6,1.73A5.17,5.17,0,0,1,77,19.27l2.61-1.17,2.66-1a6.17,6.17,0,0,0,.88-.06Z"/><path class="cls-5" d="M117.46,210.57l4.85.27c1.66.07,3.34,0,5,0-2.32.64-4.67,1.23-7,1.7l-2.26-.07c-.75,0-1.5-.09-2.25-.13A17.11,17.11,0,0,1,117.46,210.57Z"/><path class="cls-5" d="M141.58,206.57c1.26-.53,2.54-1,3.89-1.53.67-.26,1.36-.52,2.05-.82a22.35,22.35,0,0,0,2.1-1.1l1.68-.67c1.22,0,2.56-.16,3.78-.2l.62,1.18-2.42,1.1-2.49,1c-.84.33-1.67.68-2.53,1l-2.62.9a8.77,8.77,0,0,0-2.37.52c-.92.27-1.88.59-2.7.8Z"/><path class="cls-5" d="M149.88,194c.21-.15,2-.81,4.42-2a95.1,95.1,0,0,0,8.63-4.53,88.83,88.83,0,0,0,12-8.41c.6-.47,1.13-.77,1.74-1.17s1.31-.9,2.31-1.7c-.23.48-.5.92-.77,1.37A85.1,85.1,0,0,1,165,187.48c-1.64,1-3.28,2-4.9,2.83l-2.32,1.24-2.16,1-1.88.91-1.57.67c-.91.39-1.53.67-1.78.8Z"/><path class="cls-5" d="M176.91,175.44c1.62-1.88,2.94-3.81,4.41-5.78,1.14-.77,2.19-1.42,3.45-2.33,0-.82.07-1.8.16-2.73.59-.78,1.33-1.65,1.88-2.47,1.06-.87,2.14-1.74,3.19-2.65l1.33-2.48.67-1.25.59-1.25.41-.71,2.09-.62c-.92,1.59-1.78,3.22-2.8,4.75l-1.9,1.79c-.6,1.38-1.31,2.9-2,4.43l-2,2.52-.93,1.19-2.78,3.55-2.84,3.36-2.62,1Z"/><path class="cls-5" d="M186.17,177c1-1.64,1.92-3.1,2.82-4.39a15.63,15.63,0,0,0,2.06-3.73l1.08-1.39c1.11-1,2-1.84,3.24-3,.77.05,0,1.24-1,2.6s-2.25,2.82-2.21,3.63l-1,1.27-2.47,2.53-1.23,1.26Z"/><path class="cls-7" d="M187.67,167.57c1.13-2.53,1.37-.71,2.82-3a16.06,16.06,0,0,1,.25-1.86l-2.38,1.47c.73-1.53,1.44-3.05,2-4.43l1.9-1.79c1-1.53,1.88-3.16,2.8-4.75a8.67,8.67,0,0,0,1-1.38c.71-.6,1.35-1,2.07-1.66l.21.09.21.09c.28-.25.49-.35.77-.6-.55,2.17-1,4.43-1.64,6.45-.7,1-1.21,1.92-2,2.89l-1.3,2.05c-.84,1.12-1.79,2.16-2.73,3.2a11.25,11.25,0,0,1-.61,1.66C190,166.48,188.78,167.1,187.67,167.57Z"/><path class="cls-8" d="M186.4,166.66l2-2.52,2.38-1.47a16.06,16.06,0,0,0-.25,1.86c-1.46,2.32-1.69.5-2.82,3Z"/><path class="cls-2" d="M88,19l-.78.23c-2,.58-4,1.4-5.94,2.16-1,.31-2,.67-2.92,1s-1.92.68-2.88,1.11c-3.53.59-8,3.62-12,5.89-1.19.57-2.46,1.05-3.66,1.65a21.24,21.24,0,0,1,2.75-2.39A40.18,40.18,0,0,1,68.33,25c1.33-.67,2.78-1.48,4.28-2.17,1.1,0,2.21-.05,3.43-.16,1.17-.57,2.36-1.1,3.56-1.64C83.66,19,85.33,18.59,88,19Z"/><path class="cls-4" d="M18.4,131.25c.72,2.65,1.47,5.3,2.4,7.88C19.86,136.55,19.12,133.91,18.4,131.25Z"/><path class="cls-4" d="M109.42,203.83l1.53-.2c1.27,0,2.81,0,4.27-.08a19.22,19.22,0,0,0,2.09-.23,7.46,7.46,0,0,0,1.72-.58l2.65-.21c.88-.07,1.76-.22,2.64-.32l2.64-.35,2.62-.48c.61-.35,1.39-.71,2.15-1.11,1-.05,2.21-.19,3.23-.29-1.73.69-3.45,1.45-5.24,2l.06.22L127,203.28l-2.73.91-1.71.22-4.79.62c-1.21.07-2.25.08-3.46.12C112.71,204.78,111,204.28,109.42,203.83Z"/><path class="cls-6" d="M198.59,150.31l-.21-.09Z"/><path class="cls-4" d="M135,200l.75-.41a14.76,14.76,0,0,1,4.66-1.41c1.45-.33,2.46-.63,2-1.28,1.26-.43,2.53-.85,3.77-1.37s2.5-.95,3.7-1.52l.49,1a8.89,8.89,0,0,1-3.28,1.86c-.63.26-1.25.51-1.79.77a4.65,4.65,0,0,0-1.36.83c.6.11.26.42-.75.78a18.56,18.56,0,0,1-2,.57c-.81.16-1.76.29-2.81.41-.77-.17-1.7-.26-2.63-.41Z"/><path class="cls-5" d="M138.42,200.19c1-.11,2-.24,2.81-.41a18.56,18.56,0,0,0,2-.57c1-.36,1.34-.67.75-.78.6.11.26.42-.75.78a18.56,18.56,0,0,1-2,.57C140.41,199.95,139.46,200.08,138.42,200.19Z"/></g></g><path class="cls-9" d="M40.63,42.82a13.34,13.34,0,0,1,4-1,16.56,16.56,0,0,1,4.22.18,30.55,30.55,0,0,1,3.46,1,18.88,18.88,0,0,1,3.49,1.64,11.66,11.66,0,0,1,2.94,2.52,9.11,9.11,0,0,1,1.82,3.58,8.12,8.12,0,0,1,1.33,2.79,27.47,27.47,0,0,1-.09,5,47.58,47.58,0,0,1-.88,5.34q-.61,2.73-1.46,5.49t-1.82,5.43q-1,3.58-1.85,6.94t-1.73,6.28L52.33,91.1a1.19,1.19,0,0,1,.85-.24,14.56,14.56,0,0,1,2.34.24,17.88,17.88,0,0,0,3,.24,46.37,46.37,0,0,0,8.07-.73,3,3,0,0,0,.55.24s.33-.08.88-.24l1.76-.52q.94-.27,1.73-.55a2.24,2.24,0,0,0,.85-.39,17.2,17.2,0,0,0,3.76-3,23.74,23.74,0,0,0,2.58-3.34q1.12-1.76,2.27-3.79a50.9,50.9,0,0,1,2.79-4.34Q85.45,72,87.15,69a65.13,65.13,0,0,0,3-6.07,37.56,37.56,0,0,0,2-5.88,16.68,16.68,0,0,0,.52-5.22,6.71,6.71,0,0,0-1.12-3.64,4.63,4.63,0,0,0-1.85-1.4,6.54,6.54,0,0,0-1.79-.42q-.82-.06-.88-.73a1.14,1.14,0,0,1,.3-.94,2.62,2.62,0,0,1,1-.64,6.66,6.66,0,0,1,1.27-.36,7.14,7.14,0,0,1,1.27-.12,9.43,9.43,0,0,1,2.88.46A7.25,7.25,0,0,1,96,45.12a13.43,13.43,0,0,1,3.06.79,16.53,16.53,0,0,1,3.61,1.85,12.45,12.45,0,0,1,3.06,2.94,7.63,7.63,0,0,1,1.49,4q.18,1.88.39,4a24.22,24.22,0,0,1,.06,4.19,17.77,17.77,0,0,1-.76,4,8.66,8.66,0,0,1-2.06,3.46,46,46,0,0,1-4.34,6.52,42.83,42.83,0,0,1-6.22,6.37,44.33,44.33,0,0,1-8.07,5.34,39,39,0,0,1-9.83,3.49A13.74,13.74,0,0,1,73,93.44a27.71,27.71,0,0,1-3.91.76q-2,.24-3.88.39t-3.21.3a6.62,6.62,0,0,0-2,.46q-.64.3-.09.85a36.87,36.87,0,0,1,2.7,3.58q1.85,2.67,4.49,6.4t6,8.28q3.37,4.55,7.25,9.16,2.91,3.76,6,7.67T92.64,139q3.18,3.82,6.55,7.34t6.82,6.49a7.26,7.26,0,0,0,2.34,1.4,10.12,10.12,0,0,0,1.91.39,16.41,16.41,0,0,1,1.88.3,6.31,6.31,0,0,1,2.18,1.06,9.39,9.39,0,0,1,2.94-.27l2.85.15a8.28,8.28,0,0,0,2.3-.18,1.71,1.71,0,0,0,1.3-1.27,14.18,14.18,0,0,1,1.7,5.52,16.73,16.73,0,0,1-.55,5.4,35.78,35.78,0,0,1-2.15,5.88q-1.43,3.09-3.06,7a1.35,1.35,0,0,1-1.18.91,5.67,5.67,0,0,1-1.85-.21,22,22,0,0,1-2.15-.7,13.05,13.05,0,0,0-2-.61,20.7,20.7,0,0,1-8.55-2.3,54.74,54.74,0,0,1-8.77-5.46,89.39,89.39,0,0,1-8.37-7.19q-4-3.91-7.37-7.49A30.07,30.07,0,0,1,76.78,152q-1.21-1.67-2.37-3.4t-2.18-3.4q-1-1.67-2.06-3.06-1.21-2.37-2.67-6t-3.06-7.88q-1.61-4.25-3.21-8.73t-3.06-8.61q-1.46-4.12-2.67-7.49T53.55,98l-.79.73a10.12,10.12,0,0,0-2-1.67q-.73-.39-1.09-.21a.85.85,0,0,0-.42.73,4.92,4.92,0,0,0,0,1.09,9.64,9.64,0,0,0,.15,1c.06.28.09.38.09.3q.12.12-.42,1.58t-1.46,3.76l.24,1a8.38,8.38,0,0,1,.18,1,9.27,9.27,0,0,1-.36,3.24q-.49,1.73-1.18,3.58t-1.4,3.82a21.79,21.79,0,0,0-1,3.91,2.62,2.62,0,0,1,.15.49c0,.12.05.28.09.49a1.54,1.54,0,0,1-.42,1.3l-1.06,1a4.59,4.59,0,0,0-1,1.33,4.74,4.74,0,0,0-.3,2.46c0,.24.09.49.15.73s.11.49.15.73a1.77,1.77,0,0,1-.45,1.06,5.33,5.33,0,0,0-.7,1.12,29.68,29.68,0,0,0-1.88,6.16q-.42,2.58-.64,4.31a9.6,9.6,0,0,1-.64,2.67,2.34,2.34,0,0,1-1.94,1.18,4.52,4.52,0,0,1-2.06-.61,8.48,8.48,0,0,1-2.24-1.79,12.82,12.82,0,0,1-2-2.91,13.44,13.44,0,0,1-1.24-3.91,22.7,22.7,0,0,1-.67-5.88A56.37,56.37,0,0,1,27.8,126q.33-2.73.64-5.25a23.24,23.24,0,0,0,.12-4.7,22.11,22.11,0,0,1,.06-3.64q.18-1.94.52-3.94t.73-4q.39-2,.76-3.85,1.39-4.24,2.85-9.13t2.79-9.86q1.33-5,2.52-9.89t2-9.28q.82-4.37,1.18-8a35.41,35.41,0,0,0,.18-6,4.76,4.76,0,0,0-.36-1.4,12.3,12.3,0,0,0-.67-1.36l-.67-1.15a1.77,1.77,0,0,1-.3-.82,1.24,1.24,0,0,1,0-.61A.52.52,0,0,1,40.63,42.82Z"/><path class="cls-10" d="M180.15,107.15q-.81,2.32-1.39,4t-1,3l-.75,2.5q-.35,1.16-.81,2.55l6.27.58A33.08,33.08,0,0,1,195.18,124a33.53,33.53,0,0,1,9.4,8.19,39.52,39.52,0,0,1,6.15,11.26,52.35,52.35,0,0,1,2.84,13.41,36.76,36.76,0,0,1-1,11.49,48.88,48.88,0,0,1-6.09,13.93,23.55,23.55,0,0,1-4.59,6.56,25.86,25.86,0,0,1-5.34,3.95,41,41,0,0,1-5.92,2.67,57.22,57.22,0,0,0-6.33,2.73,4.34,4.34,0,0,1-2.55.93,10.1,10.1,0,0,0-2.21.29q-1.28.29-2.38.46a6.93,6.93,0,0,1-2,.06.87.87,0,0,1-.87-.93q-.12-1.16.41-1.45a2.23,2.23,0,0,1,1.1-.29,6.5,6.5,0,0,0,2.44-.58,10.67,10.67,0,0,0,1.39-.58,27,27,0,0,0,6.85-1.74,41,41,0,0,0,6.79-3.83,33,33,0,0,0,7.49-7.43q1.62-3.13,3.13-6.21a56.67,56.67,0,0,0,2.55-6,38.84,38.84,0,0,0,1.57-5.75,20.8,20.8,0,0,0,.29-5.57q-1.28-14.86-9.75-23.63t-24.38-9.46q-1.16,3.13-2,6t-1.74,5.86q-.93,3-2.09,6.09t-2.9,6.85q-.93,1.74-2.09,4.18t-2.44,5q-1.28,2.55-2.5,4.93t-2.15,4q-.93,1.74-2.09,4.06t-2.5,4.7a33.4,33.4,0,0,1-2.84,4.3,9.6,9.6,0,0,1-3.13,2.73,46.2,46.2,0,0,0-5.75,3.66q-2.73,2-5.51,3.95a36.1,36.1,0,0,1-5.63,3.19,14.45,14.45,0,0,1-6,1.28q-7.78,0-12.42-1.74a14.28,14.28,0,0,1-7-5.22,19,19,0,0,1-3-8.77,71.9,71.9,0,0,1-.12-12.37A44.94,44.94,0,0,1,103.64,155a60.52,60.52,0,0,1,7-12.71,69.46,69.46,0,0,1,9.52-10.68,67.79,67.79,0,0,1,10.68-8.07,49.59,49.59,0,0,1,10.51-4.88,21.74,21.74,0,0,1,9.06-1.16,5.6,5.6,0,0,0,1.33-2,23.29,23.29,0,0,0,1.16-3.19q.52-1.8,1-3.83t1.1-4.12Zm-26.47,1.51,1.8-5.63L157,98.1q.7-2.2,1.1-3.66a11.88,11.88,0,0,0,.41-1.68,1.81,1.81,0,0,1-.12-.52.64.64,0,0,0-.23-.41,6.42,6.42,0,0,1-1.28,2.44q-1.28,1.86-3.19,4.3t-4.3,5.22q-2.38,2.79-4.59,5.22c0,.23-.23.37-.7.41s-.66.37-.58,1a26.74,26.74,0,0,1-4.64,4.82,6.1,6.1,0,0,1-3.37,1.45,13.85,13.85,0,0,1-5-1.16,30.35,30.35,0,0,1-5.86-3.19,36.14,36.14,0,0,1-5.63-4.82,21.62,21.62,0,0,1-4.18-6.15,18.22,18.22,0,0,0-1.92-1,5,5,0,0,1-1.8-1.51l-3-3.95a11.16,11.16,0,0,1-1.51-2.9,12.49,12.49,0,0,1-.81-3.13c0-.08,0-.37-.06-.87s-.06-1.1-.06-1.8a14.89,14.89,0,0,1,.17-2.21,10.34,10.34,0,0,1,.52-2.09q.47-3.83,1.28-8A72.13,72.13,0,0,1,110,65.36a68.35,68.35,0,0,1,3.83-9.17,85.45,85.45,0,0,1,5.86-9.87l2.44-3.25q2.32-3,4.64-5.81t4.88-5.8h.93c.39,0,.58,0,.58-.12s.08-.12.23-.12a2.82,2.82,0,0,1,.75.12,2.72,2.72,0,0,0,.75.12,32,32,0,0,1,5.75-2.38A35.62,35.62,0,0,1,145.9,28a35.21,35.21,0,0,1,6.38-3.19,17.82,17.82,0,0,1,6.27-1.22,7.94,7.94,0,0,1,4.12,1.22,15.38,15.38,0,0,1,3.66,3.08A18.66,18.66,0,0,1,169,31.8a12.37,12.37,0,0,1,1.28,3.83c0,.77-.19,1.16-.58,1.16A16.13,16.13,0,0,0,161.11,39a27.39,27.39,0,0,0-6.56,5.69,58.89,58.89,0,0,0-5.63,8q-2.67,4.47-5.69,9l-1.16,2.79q-1.16,2.09-2.55,4.3t-2.61,4.47q-1.22,2.26-2.15,4.41a14.74,14.74,0,0,0-1.16,4l-1.63,7a2.29,2.29,0,0,0-.12,1.63,19.23,19.23,0,0,0,.41,2.55q.29,1.28.52,2.55a53.18,53.18,0,0,0-2,5.34,9.38,9.38,0,0,0-.46,3.95q.23,2.55,2.55,2.55a7.64,7.64,0,0,0,3.72-1.33,26.17,26.17,0,0,0,4.76-3.89,51.46,51.46,0,0,0,5.17-6.15,54.26,54.26,0,0,0,4.82-8.13l6.15-14.86a5.56,5.56,0,0,1-.06-1.39q.06-.7.06-1.39l-.12-.7a34.82,34.82,0,0,1,2.5-6.62,33,33,0,0,0,2.38-6.15,19.09,19.09,0,0,1,.17-5.05,12.22,12.22,0,0,1,1.16-3.54,6.31,6.31,0,0,1,1.68-2.09,2.87,2.87,0,0,1,1.63-.7,10.36,10.36,0,0,1,4.35,1,16,16,0,0,1,4.41,3.13,22.83,22.83,0,0,1,3.95,5.34,33.38,33.38,0,0,1,3,7.66,17.4,17.4,0,0,1,2,2.61,7.78,7.78,0,0,1,1,3,10.07,10.07,0,0,1-.46,4.06,11.71,11.71,0,0,0-.46,4.53,4.92,4.92,0,0,1,.17.7,1.76,1.76,0,0,0,.29.7,40.82,40.82,0,0,1-.35,5.17q-.35,2.73-.87,5.46t-1.1,5.4q-.58,2.67-1,4.88l-.93,8.47-4.18,7.31ZM115.25,191a8.45,8.45,0,0,0,5.63-2.61,35.88,35.88,0,0,0,5.63-6.91,88.52,88.52,0,0,0,5.46-9.87q2.67-5.57,5.05-11.49t4.3-11.73q1.91-5.81,3.37-10.51t2.21-7.89a15.36,15.36,0,0,0,.64-3.89c0-.16-.12-.31-.35-.46a34.77,34.77,0,0,0-15.5,5.34A47.28,47.28,0,0,0,120,141.63a55.14,55.14,0,0,0-7.78,13.58A61.19,61.19,0,0,0,108.4,169a25.56,25.56,0,0,0-.23,5.92q.23,2.9.64,5.34t.81,4a14,14,0,0,1,.41,1.8,4.1,4.1,0,0,0,.64,1.51,6.94,6.94,0,0,0,1.34,1.51,12.29,12.29,0,0,0,1.68,1.22A4.62,4.62,0,0,0,115.25,191Z"/></svg>